# xmcd
#
# Track frame offsets: 
#        150
#        11774
#        24876
#        42970
#        48774
#        61292
#        68092
#        89845
#        111764
#        132345
#        138269
#        156137
#        163521
#        172483
#        182207
#        198146
#        207331
#        222176
#        237458
#        247091
#        256099
#
# Disc length: 3731 seconds
#
# Revision: 1
# Processed by: cddbd v1.5.2PL0 Copyright (c) Steve Scherf et al.
# Submitted via: ExactAudioCopy v0.99pb5
#
DISCID=2f0e9115
DTITLE=Various Artist - Баюшки-баю
DYEAR=2009
DGENRE=Колыбельная
TTITLE0=Спят усталые игрушки
TTITLE1=Спи, моя радость, усни!
TTITLE2=Колыбельная, которую мальчик пел себе сам
TTITLE3=Баиньки
TTITLE4=Баю, Варенька
TTITLE5=Усни-трава
TTITLE6=Колыбельная
TTITLE7=Колыбельная
TTITLE8=Колыбельная из к/ф "Цирк"
TTITLE9=В небе звездочки горят
TTITLE10=Колыбельная Клары из оперы "Порги и Бесс"
TTITLE11=Спи, баю-бай, скорее засыпай
TTITLE12=Колыбельная
TTITLE13=Маленькие лошадки
TTITLE14=Тихой ночью
TTITLE15=Колыбельная медведицы из м/ф "Умка"
TTITLE16=Колыбельная
TTITLE17=Колыбельная Светлане
TTITLE18=На землю вечер сошел давно
TTITLE19=Спать пора
TTITLE20=Бонус: Спят усталые игрушки
EXTD=
EXTT0=
EXTT1=
EXTT2=
EXTT3=
EXTT4=
EXTT5=
EXTT6=
EXTT7=
EXTT8=
EXTT9=
EXTT10=
EXTT11=
EXTT12=
EXTT13=
EXTT14=
EXTT15=
EXTT16=
EXTT17=
EXTT18=
EXTT19=
EXTT20=
PLAYORDER=
